<svg xmlns="http://www.w3.org/2000/svg" width="1100" height="300" viewBox="0 0 1100 300" font-family="monospace" font-size="11">
<rect width="1100" height="300" fill="white"/>
<g stroke="black" stroke-width="1" fill="none"><rect x="20" y="20" width="340" height="260"/></g>
<text x="24" y="34" font-weight="bold">N=4</text>
<line x1="20.0" y1="157.0" x2="246.7" y2="51.0" stroke="steelblue" stroke-width="2"/>
<line x1="246.7" y1="51.0" x2="360.0" y2="51.0" stroke="firebrick" stroke-width="2"/>
<circle cx="246.7" cy="51.0" r="3" fill="black"/>
<text x="250.7" y="47.0">ridge AI=4.0</text>
<circle cx="133.3" cy="121.0" r="3.5" fill="seagreen" fill-opacity="0.85"/>
<circle cx="133.3" cy="128.3" r="3.5" fill="darkorange" fill-opacity="0.85"/>
<circle cx="210.2" cy="75.3" r="3.5" fill="seagreen" fill-opacity="0.85"/>
<circle cx="210.2" cy="78.7" r="3.5" fill="darkorange" fill-opacity="0.85"/>
<circle cx="236.8" cy="57.8" r="3.5" fill="seagreen" fill-opacity="0.85"/>
<circle cx="236.8" cy="58.9" r="3.5" fill="darkorange" fill-opacity="0.85"/>
<circle cx="244.1" cy="52.8" r="3.5" fill="seagreen" fill-opacity="0.85"/>
<circle cx="244.1" cy="53.1" r="3.5" fill="darkorange" fill-opacity="0.85"/>
<circle cx="244.1" cy="52.8" r="3.5" fill="seagreen" fill-opacity="0.85"/>
<circle cx="244.1" cy="53.1" r="3.5" fill="darkorange" fill-opacity="0.85"/>
<text x="24" y="276" font-size="9">AI (MACs/byte, log) &#8594;</text>
<g stroke="black" stroke-width="1" fill="none"><rect x="380" y="20" width="340" height="260"/></g>
<text x="384" y="34" font-weight="bold">N=8</text>
<line x1="380.0" y1="157.0" x2="606.7" y2="51.0" stroke="steelblue" stroke-width="2"/>
<line x1="606.7" y1="51.0" x2="720.0" y2="51.0" stroke="firebrick" stroke-width="2"/>
<circle cx="606.7" cy="51.0" r="3" fill="black"/>
<text x="610.7" y="47.0">ridge AI=8.0</text>
<circle cx="493.3" cy="128.3" r="3.5" fill="seagreen" fill-opacity="0.85"/>
<circle cx="493.3" cy="131.7" r="3.5" fill="darkorange" fill-opacity="0.85"/>
<circle cx="570.2" cy="78.7" r="3.5" fill="seagreen" fill-opacity="0.85"/>
<circle cx="570.2" cy="80.4" r="3.5" fill="darkorange" fill-opacity="0.85"/>
<circle cx="596.8" cy="58.9" r="3.5" fill="seagreen" fill-opacity="0.85"/>
<circle cx="596.8" cy="59.5" r="3.5" fill="darkorange" fill-opacity="0.85"/>
<circle cx="604.1" cy="53.1" r="3.5" fill="seagreen" fill-opacity="0.85"/>
<circle cx="604.1" cy="53.2" r="3.5" fill="darkorange" fill-opacity="0.85"/>
<circle cx="601.6" cy="55.1" r="3.5" fill="seagreen" fill-opacity="0.85"/>
<circle cx="601.6" cy="55.3" r="3.5" fill="darkorange" fill-opacity="0.85"/>
<text x="384" y="276" font-size="9">AI (MACs/byte, log) &#8594;</text>
<g stroke="black" stroke-width="1" fill="none"><rect x="740" y="20" width="340" height="260"/></g>
<text x="744" y="34" font-weight="bold">N=16</text>
<line x1="740.0" y1="157.0" x2="966.7" y2="51.0" stroke="steelblue" stroke-width="2"/>
<line x1="966.7" y1="51.0" x2="1080.0" y2="51.0" stroke="firebrick" stroke-width="2"/>
<circle cx="966.7" cy="51.0" r="3" fill="black"/>
<text x="970.7" y="47.0">ridge AI=16.0</text>
<circle cx="853.3" cy="131.7" r="3.5" fill="seagreen" fill-opacity="0.85"/>
<circle cx="853.3" cy="133.4" r="3.5" fill="darkorange" fill-opacity="0.85"/>
<circle cx="930.2" cy="80.4" r="3.5" fill="seagreen" fill-opacity="0.85"/>
<circle cx="930.2" cy="81.2" r="3.5" fill="darkorange" fill-opacity="0.85"/>
<circle cx="956.8" cy="59.5" r="3.5" fill="seagreen" fill-opacity="0.85"/>
<circle cx="956.8" cy="59.7" r="3.5" fill="darkorange" fill-opacity="0.85"/>
<circle cx="964.1" cy="53.2" r="3.5" fill="seagreen" fill-opacity="0.85"/>
<circle cx="964.1" cy="53.3" r="3.5" fill="darkorange" fill-opacity="0.85"/>
<circle cx="956.8" cy="59.5" r="3.5" fill="seagreen" fill-opacity="0.85"/>
<circle cx="956.8" cy="59.7" r="3.5" fill="darkorange" fill-opacity="0.85"/>
<text x="744" y="276" font-size="9">AI (MACs/byte, log) &#8594;</text>
<circle cx="26" cy="290" r="3.5" fill="seagreen"/><text x="34" y="294">single_load</text><circle cx="140" cy="290" r="3.5" fill="darkorange"/><text x="148" y="294">per_tile_reload</text></svg>
